<svg width="22" height="21" viewBox="0 0 22 21" fill="none" xmlns="http://www.w3.org/2000/svg">
<path d="M4.92503 21H0.363799V6.9795H4.92503V21ZM2.64167 5.067C1.18333 5.067 0 3.9135 0 2.5215C0 1.85276 0.278318 1.2114 0.773726 0.73853C1.26913 0.265657 1.94105 0 2.64167 0C3.34228 0 4.0142 0.265657 4.50961 0.73853C5.00501 1.2114 5.28333 1.85276 5.28333 2.5215C5.28333 3.9135 4.1 5.067 2.64167 5.067ZM21.9961 21H17.4451V14.175C17.4451 12.5482 17.4105 10.4625 15.0737 10.4625C12.7023 10.4625 12.3385 12.2295 12.3385 14.058V21H7.78199V6.9795H12.1562V8.892H12.2199C12.8288 7.79025 14.3162 6.62775 16.5352 6.62775C21.1514 6.62775 22 9.5295 22 13.2983V21H21.9961Z" fill="#F0F0F0"/>
</svg>
