<svg width="26" height="22" viewBox="0 0 26 22" fill="none" xmlns="http://www.w3.org/2000/svg">
<path d="M25.0714 0.594238H0.928571C0.414955 0.594238 0 1.01089 0 1.5266V20.1739C0 20.6896 0.414955 21.1063 0.928571 21.1063H25.0714C25.585 21.1063 26 20.6896 26 20.1739V1.5266C26 1.01089 25.585 0.594238 25.0714 0.594238ZM22.7268 3.76719L13.5717 10.9202C13.3453 11.0979 13.029 11.0979 12.8027 10.9202L3.64464 3.76719C3.61012 3.74044 3.5848 3.70351 3.57223 3.66159C3.55966 3.61966 3.56047 3.57483 3.57455 3.53339C3.58862 3.49195 3.61526 3.45597 3.65073 3.4305C3.6862 3.40502 3.72871 3.39133 3.77232 3.39133H22.5991C22.6427 3.39133 22.6852 3.40502 22.7207 3.4305C22.7562 3.45597 22.7828 3.49195 22.7969 3.53339C22.811 3.57483 22.8118 3.61966 22.7992 3.66159C22.7866 3.70351 22.7613 3.74044 22.7268 3.76719Z" fill="#F0F0F0"/>
</svg>
