<svg width="20" height="21" viewBox="0 0 20 21" fill="none" xmlns="http://www.w3.org/2000/svg">
<path d="M13.3342 14.3643L15.0564 12.6777C15.2883 12.4533 15.5818 12.2997 15.9012 12.2356C16.2205 12.1714 16.552 12.1994 16.8555 12.3162L18.9544 13.137C19.261 13.2589 19.5239 13.4669 19.71 13.7349C19.8961 14.0029 19.997 14.3189 20 14.6429V18.4079C19.9982 18.6283 19.9509 18.8461 19.8609 19.0482C19.7709 19.2503 19.6401 19.4324 19.4763 19.5837C19.3125 19.7349 19.1192 19.8522 18.9079 19.9283C18.6967 20.0045 18.4719 20.0379 18.2471 20.0268C3.5392 19.1307 0.57149 6.93242 0.010239 2.26393C-0.0158147 2.03468 0.00798983 1.80262 0.0800864 1.58302C0.152183 1.36342 0.270938 1.16126 0.428538 0.989842C0.586138 0.818421 0.779012 0.681623 0.994471 0.588449C1.20993 0.495274 1.44309 0.447834 1.67862 0.44925H5.3921C5.72347 0.45021 6.04698 0.548242 6.321 0.730736C6.59503 0.91323 6.80704 1.17184 6.92977 1.4733L7.7678 3.52894C7.89101 3.82492 7.92245 4.14988 7.85818 4.46325C7.79391 4.77662 7.63679 5.0645 7.40645 5.29092L5.68426 6.9776C5.68426 6.9776 6.67606 13.5511 13.3342 14.3643Z" fill="#F0F0F0"/>
</svg>
