<svg width="28" height="28" viewBox="0 0 28 28" fill="none" xmlns="http://www.w3.org/2000/svg">
<path fill-rule="evenodd" clip-rule="evenodd" d="M0 14C0 17.713 1.475 21.274 4.10051 23.8995C6.72601 26.525 10.287 28 14 28C17.713 28 21.274 26.525 23.8995 23.8995C26.525 21.274 28 17.713 28 14C28 10.287 26.525 6.72601 23.8995 4.10051C21.274 1.475 17.713 0 14 0C10.287 0 6.72601 1.475 4.10051 4.10051C1.475 6.72601 0 10.287 0 14V14ZM25.6 14C25.6 17.0765 24.3779 20.027 22.2024 22.2024C20.027 24.3779 17.0765 25.6 14 25.6C10.9235 25.6 7.97298 24.3779 5.79756 22.2024C3.62214 20.027 2.4 17.0765 2.4 14C2.4 10.9235 3.62214 7.97298 5.79756 5.79756C7.97298 3.62214 10.9235 2.4 14 2.4C17.0765 2.4 20.027 3.62214 22.2024 5.79756C24.3779 7.97298 25.6 10.9235 25.6 14V14Z" fill="#F0F0F0"/>
<path fill-rule="evenodd" clip-rule="evenodd" d="M8 14C8 21.2352 10.3856 27.2 14 27.2C17.6144 27.2 20 21.2352 20 14C20 6.76479 17.6144 0.799988 14 0.799988C10.3856 0.799988 8 6.76479 8 14ZM17.6 14C17.6 20.0192 15.688 24.8 14 24.8C12.312 24.8 10.4 20.0192 10.4 14C10.4 7.98079 12.312 3.19999 14 3.19999C15.688 3.19999 17.6 7.98079 17.6 14Z" fill="#F0F0F0"/>
<path d="M3.76318 6.74719L5.37278 4.96799C5.53278 5.11199 5.70718 5.25599 5.89278 5.39519C7.92638 6.91839 11.1728 7.85919 14.7168 7.85919C17.7424 7.85919 20.56 7.17599 22.6064 6.00639C23.0992 5.72479 23.5376 5.41919 23.9168 5.09439L25.4752 6.91999C24.9792 7.34399 24.4176 7.73599 23.7984 8.08799C21.3728 9.47679 18.144 10.2576 14.7168 10.2576C10.6816 10.2576 6.93278 9.17279 4.45278 7.31519C4.21432 7.13654 3.98421 6.94701 3.76318 6.74719V6.74719Z" fill="#F0F0F0"/>
<path d="M3.76318 21.2784L5.37278 23.0576C5.53278 22.912 5.70718 22.7696 5.89278 22.6304C7.92638 21.1072 11.1728 20.1664 14.7168 20.1664C17.7424 20.1664 20.56 20.8496 22.6064 22.0192C23.0992 22.3008 23.5376 22.6064 23.9168 22.9312L25.4752 21.1056C24.9539 20.6648 24.3925 20.2738 23.7984 19.9376C21.3728 18.5488 18.144 17.768 14.7168 17.768C10.6816 17.768 6.93278 18.8528 4.45278 20.7104C4.21431 20.889 3.9842 21.0786 3.76318 21.2784V21.2784Z" fill="#F0F0F0"/>
<path d="M0.800049 15.2V12.8H27.2001V15.2H0.800049Z" fill="#F0F0F0"/>
</svg>
