<svg width="36" height="36" viewBox="0 0 36 36" fill="none" xmlns="http://www.w3.org/2000/svg">
<path d="M34.6326 6.46783L18.6325 1.08518C18.222 0.946867 17.7781 0.946867 17.3675 1.08518L1.40784 6.45437L1.39934 6.45706L1.36767 6.46783C1.3385 6.47758 1.31067 6.48936 1.28234 6.50029C1.20719 6.52904 1.13383 6.56235 1.06267 6.60004C1.043 6.61064 1.024 6.62241 1.00467 6.63368C0.971502 6.65286 0.938835 6.67237 0.907001 6.69356C0.888668 6.70551 0.871001 6.71795 0.853168 6.73057C0.82039 6.75378 0.788446 6.77789 0.757335 6.8029C0.742335 6.81501 0.727168 6.82678 0.712334 6.83923C0.675223 6.87085 0.63939 6.90377 0.604834 6.93797C0.597334 6.94537 0.589501 6.9521 0.582168 6.9595C0.540834 7.00155 0.50139 7.04529 0.463834 7.0907C0.453334 7.10349 0.443834 7.11711 0.433501 7.13006C0.407667 7.16303 0.382501 7.1965 0.358834 7.23099C0.345667 7.24983 0.333167 7.26917 0.320834 7.28868C0.301389 7.31896 0.282778 7.34985 0.265 7.38136C0.252834 7.40273 0.240667 7.42392 0.229334 7.44579C0.211667 7.4796 0.195667 7.51442 0.179834 7.5494C0.171167 7.56875 0.1615 7.58759 0.1535 7.60727C0.132 7.65908 0.113 7.71206 0.0960002 7.76589C0.0890002 7.78775 0.0833334 7.81046 0.0771667 7.83267C0.0667597 7.86912 0.0573673 7.90586 0.0490002 7.94284C0.0352837 8.00593 0.0245492 8.06964 0.0168333 8.13376C0.0141667 8.15462 0.0111666 8.1753 0.00933331 8.19633C0.00366663 8.25789 0 8.31996 0 8.38271V21.8393C7.90408e-09 22.3747 0.210714 22.8881 0.585787 23.2666C0.960861 23.6452 1.46957 23.8578 2 23.8578C2.53044 23.8578 3.03915 23.6452 3.41422 23.2666C3.78929 22.8881 4.00001 22.3747 4.00001 21.8393V11.1832L7.95251 12.5129C6.73192 14.8714 6.36558 17.5861 6.91674 20.1881C7.46789 22.7902 8.90196 25.1164 10.9714 26.7651C8.13821 28.0955 5.73287 30.2032 4.03001 32.8475C3.88654 33.0696 3.78781 33.3179 3.73945 33.5785C3.6911 33.839 3.69406 34.1067 3.74819 34.3661C3.80231 34.6254 3.90652 34.8715 4.05488 35.0903C4.20324 35.309 4.39283 35.4961 4.61284 35.6409C4.83285 35.7857 5.07896 35.8854 5.33713 35.9342C5.59529 35.983 5.86045 35.98 6.11747 35.9254C6.37449 35.8707 6.61833 35.7656 6.83507 35.6158C7.05181 35.4661 7.23721 35.2748 7.38068 35.0527C8.5314 33.2683 10.1054 31.8021 11.9598 30.7871C13.8143 29.7721 15.8905 29.2405 18 29.2405C20.1096 29.2405 22.1858 29.7721 24.0402 30.7871C25.8947 31.8021 27.4687 33.2683 28.6194 35.0527C28.9091 35.5011 29.3635 35.815 29.8826 35.9253C30.4016 36.0356 30.9428 35.9333 31.3871 35.6409C31.8314 35.3484 32.1424 34.8898 32.2517 34.366C32.361 33.8421 32.2596 33.2959 31.9699 32.8475C30.267 30.2033 27.8618 28.0956 25.0287 26.7651C27.0981 25.1164 28.5322 22.7902 29.0833 20.1881C29.6345 17.5861 29.2681 14.8714 28.0475 12.5129L34.6326 10.2976C35.0308 10.1636 35.3771 9.90657 35.6225 9.5629C35.8679 9.21922 36 8.80633 36 8.38271C36 7.95908 35.8679 7.54619 35.6225 7.20251C35.3771 6.85884 35.0308 6.60181 34.6326 6.46783ZM18 5.12789L27.6755 8.38271L24.2242 9.54368L24.2189 9.54553L18 11.6377L11.7812 9.54553L11.7764 9.54384L8.32468 8.38271L18 5.12789ZM25.3334 17.8023C25.3336 18.9519 25.0684 20.0857 24.559 21.1138C24.0496 22.142 23.3098 23.0362 22.3985 23.7257C21.4871 24.4152 20.4291 24.8809 19.3083 25.086C18.1876 25.2911 17.0349 25.2299 15.9417 24.9072C14.8485 24.5846 13.8447 24.0093 13.0101 23.2271C12.1754 22.4449 11.5327 21.4773 11.133 20.4008C10.7333 19.3244 10.5876 18.1688 10.7073 17.0256C10.827 15.8824 11.209 14.7831 11.8229 13.8148L17.3675 15.6802C17.7781 15.8184 18.222 15.8184 18.6325 15.6802L24.1772 13.8148C24.933 15.0048 25.3343 16.3888 25.3334 17.8023Z" fill="#F0F0F0"/>
</svg>
