<svg width="22" height="28" viewBox="0 0 22 28" fill="none" xmlns="http://www.w3.org/2000/svg">
<path d="M0.375 28H21.625V23C21.6228 21.1441 20.8384 19.3649 19.4441 18.0526C18.0498 16.7403 16.1594 16.0021 14.1875 16H7.8125C5.84064 16.0021 3.95019 16.7403 2.55588 18.0526C1.16156 19.3649 0.37725 21.1441 0.375 23V28Z" fill="#2D2D2D"/>
<path d="M3.5625 7C3.5625 8.38447 3.9987 9.73785 4.81594 10.889C5.63319 12.0401 6.79477 12.9373 8.15379 13.4672C9.51282 13.997 11.0083 14.1356 12.451 13.8655C13.8937 13.5954 15.219 12.9287 16.2591 11.9497C17.2993 10.9708 18.0076 9.7235 18.2946 8.36563C18.5816 7.00777 18.4343 5.6003 17.8714 4.32122C17.3084 3.04213 16.3551 1.94888 15.1321 1.17971C13.909 0.410543 12.471 0 11 0C9.02745 0 7.1357 0.737498 5.74089 2.05025C4.34609 3.36301 3.5625 5.14349 3.5625 7Z" fill="#2D2D2D"/>
</svg>
