<svg width="30" height="21" viewBox="0 0 30 21" fill="none" xmlns="http://www.w3.org/2000/svg">
<path d="M28.9286 0H1.07143C0.478795 0 0 0.426562 0 0.954545V20.0455C0 20.5734 0.478795 21 1.07143 21H28.9286C29.5212 21 30 20.5734 30 20.0455V0.954545C30 0.426562 29.5212 0 28.9286 0ZM27.5893 3.30511V18.8523H2.41071V3.30511L1.48661 2.66378L2.80246 1.15739L4.23549 2.15071H25.7679L27.2009 1.15739L28.5167 2.66378L27.5893 3.30511ZM25.7679 2.14773L15 9.60511L4.23214 2.14773L2.79911 1.1544L1.48326 2.6608L2.40737 3.30213L13.8449 11.2249C14.1738 11.4525 14.5785 11.5761 14.995 11.5761C15.4115 11.5761 15.8162 11.4525 16.1451 11.2249L27.5893 3.30511L28.5134 2.66378L27.1975 1.15739L25.7679 2.14773Z" fill="#2D2D2D"/>
</svg>
